<svg id="Capa_1" enable-background="new 0 0 512 512" height="512" viewBox="0 0 512 512" width="512" xmlns="http://www.w3.org/2000/svg"><g><g><path d="m58.12 453.938v28.062h-58.12v30h88.12v-67.855l365.76-363.816v-22.209l-19.88 8.88-353 354z" fill="#666"/><path d="m424.667 0h-.787v67.855l-365.76 363.816-.058 22.267 395.818-395.818v-28.12h.787 57.333v-30z" fill="#878787"/></g><g><path d="m384.895 127.105-153.888 138.803-103.901 118.987c9.94 9.94 23.164 15.404 37.225 15.377 14.16-.027 27.659-6.016 37.672-16.029l58.821-58.82 3.417-17.56 17.56-3.417 22.509-22.509 3.771-17.914 17.206-3.064 59.607-59.607c20.503-20.504 20.503-53.744.001-74.247z" fill="#bfbfbf"/><path d="m310.649 127.105-59.607 59.607-2.24 16.383-18.502 4.359-22.863 22.863-2.946 17.089-18.032 3.889-59.355 59.355c-9.916 9.916-15.377 23.1-15.377 37.123s5.461 27.207 15.377 37.123l257.789-257.789-.001-.001c-20.5-20.503-53.741-20.503-74.243-.001z" fill="#cfcfcf"/><g><path d="m304.247 281.999 21.212-21.213-37.005-37.005-14.903 6.417-6.31 14.796z" fill="#cfcfcf"/><path d="m244.11 189.483h30v52.333h-30z" fill="#e5e5e5" transform="matrix(.707 -.707 .707 .707 -76.596 246.381)"/></g><g><path d="m260.513 325.733 21.214-21.214-37.006-37.005-15.246 6.761-5.967 14.452z" fill="#cfcfcf"/><path d="m200.377 233.216h30v52.334h-30z" fill="#e5e5e5" transform="matrix(.707 -.707 .707 .707 -120.329 228.266)"/></g></g></g></svg>